<svg viewBox="0 0 756 1236" xmlns="http://www.w3.org/2000/svg"><path d="M121.295 13.394S118.95 34.8 192.053 46.502c29.321 4.923 71.443-11.58 71.443-11.58s20.762 70.488 11.64 100.53c-8.81 29.021-39.048 47.808-49.735 76.192-11.426 30.345-13.355 63.875-13.757 96.298-.3 24.15-.777 49.646 8.466 71.96 9.803 23.666 33.424 38.994 47.62 60.317 26.599 39.956 49.13 82.626 69.842 125.93 5.257 10.991 7.194 23.598 13.757 33.863 11.963 18.714 26.887 36.563 45.503 48.678 14.399 9.37 33.905 8.163 48.678 16.932 17.609 10.452 33.285 24.838 45.503 41.271 44.53 59.887 57.319 129.23 96.298 202.12 6.77 12.662 27.194 13.042 41.27 15.873 15.624 3.143 30.098-3.69 44.446 0 19.112 4.918 37.909 14.607 51.853 28.572 14.5 14.523 25.075 33.958 29.63 53.97 4.312 18.944 4.198 40.225-3.175 58.201-12.327 30.057-64.551 73.017-64.551 73.017s-76.004 54.097-119.58 68.784c-75.831 25.56-158.09 29.47-238.1 30.688-54.222.826-111.33 3.688-161.91-15.873-20.924-8.092-36.781-25.795-53.969-40.212-25.619-21.489-57.192-39.328-73.017-68.784-9.825-18.289-12.995-40.757-10.582-61.377 4.592-39.24 29.076-73.568 46.562-109 9.857-19.97 28.352-36.382 32.805-58.202 5.11-25.038-2.325-51.387-8.466-76.192-8.106-32.746-22.482-66.088-37.038-94.182-14.556-28.094-36.815-47.016-48.678-74.075-8.175-18.648-13.7-38.929-14.815-59.26-.857-15.64 2.05-31.499 6.35-46.562 4.03-14.12 10.42-27.629 17.99-40.212 11.53-19.167 32.45-32.356 41.27-52.91 12.237-28.515 5.858-62.059 13.757-92.066 9.523-36.173 25.05-61.9 40.212-104.76 5.55-15.686 11.442-68.515 7.408-84.658-3.908-15.637-10.723-27.146-19.048-44.445C99.908 98.668 83.599 85.06 81.48 66.67c-4.492-39.66 39.609-53.22 39.609-53.22z"/></svg>